<mxfile host="app.diagrams.net" modified="2020-11-25T09:40:40.774Z" agent="5.0 (Macintosh; Intel Mac OS X 10_13_6) AppleWebKit/537.36 (KHTML, like Gecko) Chrome/86.0.4240.183 Safari/537.36" etag="Pn5ko81nCK0lRuE_EsWa" version="13.9.9" type="github">
  <diagram id="-t5gSUGXyMBBV60mOKTL" name="Page-1">
    <mxGraphModel dx="946" dy="557" grid="0" gridSize="10" guides="1" tooltips="1" connect="1" arrows="1" fold="1" page="0" pageScale="1" pageWidth="827" pageHeight="1169" math="0" shadow="0">
      <root>
        <mxCell id="0" />
        <mxCell id="1" parent="0" />
        <mxCell id="J4JmWMsf1rsz2gFimmaW-352" value="" style="shape=table;html=1;whiteSpace=wrap;startSize=0;container=1;collapsible=0;childLayout=tableLayout;perimeterSpacing=3;" parent="1" vertex="1">
          <mxGeometry x="719" y="38" width="240" height="240" as="geometry" />
        </mxCell>
        <mxCell id="J4JmWMsf1rsz2gFimmaW-353" value="" style="shape=partialRectangle;html=1;whiteSpace=wrap;collapsible=0;dropTarget=0;pointerEvents=0;fillColor=none;top=0;left=0;bottom=0;right=0;points=[[0,0.5],[1,0.5]];portConstraint=eastwest;perimeterSpacing=3;" parent="J4JmWMsf1rsz2gFimmaW-352" vertex="1">
          <mxGeometry width="240" height="40" as="geometry" />
        </mxCell>
        <mxCell id="J4JmWMsf1rsz2gFimmaW-354" value="" style="shape=partialRectangle;html=1;whiteSpace=wrap;connectable=0;overflow=hidden;fillColor=#d5e8d4;top=0;left=0;bottom=0;right=0;strokeWidth=1;perimeterSpacing=3;labelBackgroundColor=#ffffff;strokeColor=#82b366;" parent="J4JmWMsf1rsz2gFimmaW-353" vertex="1">
          <mxGeometry width="40" height="40" as="geometry" />
        </mxCell>
        <mxCell id="J4JmWMsf1rsz2gFimmaW-355" value="" style="shape=partialRectangle;html=1;whiteSpace=wrap;connectable=0;overflow=hidden;fillColor=#d5e8d4;top=0;left=0;bottom=0;right=0;strokeWidth=1;perimeterSpacing=3;labelBackgroundColor=#ffffff;strokeColor=#82b366;" parent="J4JmWMsf1rsz2gFimmaW-353" vertex="1">
          <mxGeometry x="40" width="40" height="40" as="geometry" />
        </mxCell>
        <mxCell id="J4JmWMsf1rsz2gFimmaW-356" value="" style="shape=partialRectangle;html=1;whiteSpace=wrap;connectable=0;overflow=hidden;fillColor=#d5e8d4;top=0;left=0;bottom=0;right=0;perimeterSpacing=3;strokeColor=#82b366;" parent="J4JmWMsf1rsz2gFimmaW-353" vertex="1">
          <mxGeometry x="80" width="40" height="40" as="geometry" />
        </mxCell>
        <mxCell id="J4JmWMsf1rsz2gFimmaW-357" value="" style="shape=partialRectangle;html=1;whiteSpace=wrap;connectable=0;overflow=hidden;fillColor=#d5e8d4;top=0;left=0;bottom=0;right=0;perimeterSpacing=3;strokeColor=#82b366;" parent="J4JmWMsf1rsz2gFimmaW-353" vertex="1">
          <mxGeometry x="120" width="40" height="40" as="geometry" />
        </mxCell>
        <mxCell id="J4JmWMsf1rsz2gFimmaW-358" value="" style="shape=partialRectangle;html=1;whiteSpace=wrap;connectable=0;overflow=hidden;fillColor=#d5e8d4;top=0;left=0;bottom=0;right=0;perimeterSpacing=3;strokeColor=#82b366;" parent="J4JmWMsf1rsz2gFimmaW-353" vertex="1">
          <mxGeometry x="160" width="40" height="40" as="geometry" />
        </mxCell>
        <mxCell id="J4JmWMsf1rsz2gFimmaW-359" value="" style="shape=partialRectangle;html=1;whiteSpace=wrap;connectable=0;overflow=hidden;fillColor=#d5e8d4;top=0;left=0;bottom=0;right=0;perimeterSpacing=3;strokeColor=#82b366;" parent="J4JmWMsf1rsz2gFimmaW-353" vertex="1">
          <mxGeometry x="200" width="40" height="40" as="geometry" />
        </mxCell>
        <mxCell id="J4JmWMsf1rsz2gFimmaW-360" value="" style="shape=partialRectangle;html=1;whiteSpace=wrap;collapsible=0;dropTarget=0;pointerEvents=0;fillColor=none;top=0;left=0;bottom=0;right=0;points=[[0,0.5],[1,0.5]];portConstraint=eastwest;perimeterSpacing=3;" parent="J4JmWMsf1rsz2gFimmaW-352" vertex="1">
          <mxGeometry y="40" width="240" height="40" as="geometry" />
        </mxCell>
        <mxCell id="J4JmWMsf1rsz2gFimmaW-361" value="" style="shape=partialRectangle;html=1;whiteSpace=wrap;connectable=0;overflow=hidden;fillColor=#d5e8d4;top=0;left=0;bottom=0;right=0;strokeWidth=1;perimeterSpacing=3;labelBackgroundColor=#ffffff;strokeColor=#82b366;" parent="J4JmWMsf1rsz2gFimmaW-360" vertex="1">
          <mxGeometry width="40" height="40" as="geometry" />
        </mxCell>
        <mxCell id="J4JmWMsf1rsz2gFimmaW-362" value="" style="shape=partialRectangle;html=1;whiteSpace=wrap;connectable=0;overflow=hidden;fillColor=#d5e8d4;top=0;left=0;bottom=0;right=0;strokeWidth=1;perimeterSpacing=3;labelBackgroundColor=#ffffff;strokeColor=#82b366;" parent="J4JmWMsf1rsz2gFimmaW-360" vertex="1">
          <mxGeometry x="40" width="40" height="40" as="geometry" />
        </mxCell>
        <mxCell id="J4JmWMsf1rsz2gFimmaW-363" value="" style="shape=partialRectangle;html=1;whiteSpace=wrap;connectable=0;overflow=hidden;fillColor=#d5e8d4;top=0;left=0;bottom=0;right=0;perimeterSpacing=3;strokeColor=#82b366;" parent="J4JmWMsf1rsz2gFimmaW-360" vertex="1">
          <mxGeometry x="80" width="40" height="40" as="geometry" />
        </mxCell>
        <mxCell id="J4JmWMsf1rsz2gFimmaW-364" value="" style="shape=partialRectangle;html=1;whiteSpace=wrap;connectable=0;overflow=hidden;fillColor=#d5e8d4;top=0;left=0;bottom=0;right=0;perimeterSpacing=3;strokeColor=#82b366;" parent="J4JmWMsf1rsz2gFimmaW-360" vertex="1">
          <mxGeometry x="120" width="40" height="40" as="geometry" />
        </mxCell>
        <mxCell id="J4JmWMsf1rsz2gFimmaW-365" value="" style="shape=partialRectangle;html=1;whiteSpace=wrap;connectable=0;overflow=hidden;fillColor=#d5e8d4;top=0;left=0;bottom=0;right=0;perimeterSpacing=3;strokeColor=#82b366;" parent="J4JmWMsf1rsz2gFimmaW-360" vertex="1">
          <mxGeometry x="160" width="40" height="40" as="geometry" />
        </mxCell>
        <mxCell id="J4JmWMsf1rsz2gFimmaW-366" value="" style="shape=partialRectangle;html=1;whiteSpace=wrap;connectable=0;overflow=hidden;fillColor=#d5e8d4;top=0;left=0;bottom=0;right=0;perimeterSpacing=3;strokeColor=#82b366;" parent="J4JmWMsf1rsz2gFimmaW-360" vertex="1">
          <mxGeometry x="200" width="40" height="40" as="geometry" />
        </mxCell>
        <mxCell id="J4JmWMsf1rsz2gFimmaW-367" value="" style="shape=partialRectangle;html=1;whiteSpace=wrap;collapsible=0;dropTarget=0;pointerEvents=0;fillColor=none;top=0;left=0;bottom=0;right=0;points=[[0,0.5],[1,0.5]];portConstraint=eastwest;perimeterSpacing=3;" parent="J4JmWMsf1rsz2gFimmaW-352" vertex="1">
          <mxGeometry y="80" width="240" height="40" as="geometry" />
        </mxCell>
        <mxCell id="J4JmWMsf1rsz2gFimmaW-368" value="" style="shape=partialRectangle;html=1;whiteSpace=wrap;connectable=0;overflow=hidden;fillColor=#d5e8d4;top=0;left=0;bottom=0;right=0;perimeterSpacing=3;" parent="J4JmWMsf1rsz2gFimmaW-367" vertex="1">
          <mxGeometry width="40" height="40" as="geometry" />
        </mxCell>
        <mxCell id="J4JmWMsf1rsz2gFimmaW-369" value="" style="shape=partialRectangle;html=1;whiteSpace=wrap;connectable=0;overflow=hidden;fillColor=#d5e8d4;top=0;left=0;bottom=0;right=0;perimeterSpacing=3;" parent="J4JmWMsf1rsz2gFimmaW-367" vertex="1">
          <mxGeometry x="40" width="40" height="40" as="geometry" />
        </mxCell>
        <mxCell id="J4JmWMsf1rsz2gFimmaW-370" value="" style="shape=partialRectangle;html=1;whiteSpace=wrap;connectable=0;overflow=hidden;fillColor=#d5e8d4;top=0;left=0;bottom=0;right=0;perimeterSpacing=3;strokeColor=#82b366;dashed=1;shadow=0;" parent="J4JmWMsf1rsz2gFimmaW-367" vertex="1">
          <mxGeometry x="80" width="40" height="40" as="geometry" />
        </mxCell>
        <mxCell id="J4JmWMsf1rsz2gFimmaW-371" value="" style="shape=partialRectangle;html=1;whiteSpace=wrap;connectable=0;overflow=hidden;fillColor=#d5e8d4;top=0;left=0;bottom=0;right=0;perimeterSpacing=3;strokeColor=#82b366;dashed=1;shadow=0;" parent="J4JmWMsf1rsz2gFimmaW-367" vertex="1">
          <mxGeometry x="120" width="40" height="40" as="geometry" />
        </mxCell>
        <mxCell id="J4JmWMsf1rsz2gFimmaW-372" value="" style="shape=partialRectangle;html=1;whiteSpace=wrap;connectable=0;overflow=hidden;top=0;left=0;bottom=0;right=0;perimeterSpacing=3;" parent="J4JmWMsf1rsz2gFimmaW-367" vertex="1">
          <mxGeometry x="160" width="40" height="40" as="geometry" />
        </mxCell>
        <mxCell id="J4JmWMsf1rsz2gFimmaW-373" value="" style="shape=partialRectangle;html=1;whiteSpace=wrap;connectable=0;overflow=hidden;top=0;left=0;bottom=0;right=0;perimeterSpacing=3;" parent="J4JmWMsf1rsz2gFimmaW-367" vertex="1">
          <mxGeometry x="200" width="40" height="40" as="geometry" />
        </mxCell>
        <mxCell id="J4JmWMsf1rsz2gFimmaW-374" value="" style="shape=partialRectangle;html=1;whiteSpace=wrap;collapsible=0;dropTarget=0;pointerEvents=0;fillColor=none;top=0;left=0;bottom=0;right=0;points=[[0,0.5],[1,0.5]];portConstraint=eastwest;perimeterSpacing=3;" parent="J4JmWMsf1rsz2gFimmaW-352" vertex="1">
          <mxGeometry y="120" width="240" height="40" as="geometry" />
        </mxCell>
        <mxCell id="J4JmWMsf1rsz2gFimmaW-375" value="" style="shape=partialRectangle;html=1;whiteSpace=wrap;connectable=0;overflow=hidden;fillColor=#d5e8d4;top=0;left=0;bottom=0;right=0;perimeterSpacing=3;" parent="J4JmWMsf1rsz2gFimmaW-374" vertex="1">
          <mxGeometry width="40" height="40" as="geometry" />
        </mxCell>
        <mxCell id="J4JmWMsf1rsz2gFimmaW-376" value="" style="shape=partialRectangle;html=1;whiteSpace=wrap;connectable=0;overflow=hidden;fillColor=#d5e8d4;top=0;left=0;bottom=0;right=0;perimeterSpacing=3;" parent="J4JmWMsf1rsz2gFimmaW-374" vertex="1">
          <mxGeometry x="40" width="40" height="40" as="geometry" />
        </mxCell>
        <mxCell id="J4JmWMsf1rsz2gFimmaW-377" value="" style="shape=partialRectangle;html=1;whiteSpace=wrap;connectable=0;overflow=hidden;fillColor=#d5e8d4;top=0;left=0;bottom=0;right=0;perimeterSpacing=3;strokeColor=#82b366;dashed=1;shadow=0;" parent="J4JmWMsf1rsz2gFimmaW-374" vertex="1">
          <mxGeometry x="80" width="40" height="40" as="geometry" />
        </mxCell>
        <mxCell id="J4JmWMsf1rsz2gFimmaW-378" value="" style="shape=partialRectangle;html=1;whiteSpace=wrap;connectable=0;overflow=hidden;fillColor=#d5e8d4;top=0;left=0;bottom=0;right=0;perimeterSpacing=3;strokeColor=#82b366;dashed=1;shadow=0;" parent="J4JmWMsf1rsz2gFimmaW-374" vertex="1">
          <mxGeometry x="120" width="40" height="40" as="geometry" />
        </mxCell>
        <mxCell id="J4JmWMsf1rsz2gFimmaW-379" value="" style="shape=partialRectangle;html=1;whiteSpace=wrap;connectable=0;overflow=hidden;top=0;left=0;bottom=0;right=0;perimeterSpacing=3;" parent="J4JmWMsf1rsz2gFimmaW-374" vertex="1">
          <mxGeometry x="160" width="40" height="40" as="geometry" />
        </mxCell>
        <mxCell id="J4JmWMsf1rsz2gFimmaW-380" value="" style="shape=partialRectangle;html=1;whiteSpace=wrap;connectable=0;overflow=hidden;top=0;left=0;bottom=0;right=0;perimeterSpacing=3;" parent="J4JmWMsf1rsz2gFimmaW-374" vertex="1">
          <mxGeometry x="200" width="40" height="40" as="geometry" />
        </mxCell>
        <mxCell id="J4JmWMsf1rsz2gFimmaW-381" value="" style="shape=partialRectangle;html=1;whiteSpace=wrap;collapsible=0;dropTarget=0;pointerEvents=0;fillColor=none;top=0;left=0;bottom=0;right=0;points=[[0,0.5],[1,0.5]];portConstraint=eastwest;perimeterSpacing=3;" parent="J4JmWMsf1rsz2gFimmaW-352" vertex="1">
          <mxGeometry y="160" width="240" height="40" as="geometry" />
        </mxCell>
        <mxCell id="J4JmWMsf1rsz2gFimmaW-382" value="" style="shape=partialRectangle;html=1;whiteSpace=wrap;connectable=0;overflow=hidden;fillColor=#d5e8d4;top=0;left=0;bottom=0;right=0;perimeterSpacing=3;shadow=1;sketch=0;" parent="J4JmWMsf1rsz2gFimmaW-381" vertex="1">
          <mxGeometry width="40" height="40" as="geometry" />
        </mxCell>
        <mxCell id="J4JmWMsf1rsz2gFimmaW-383" value="" style="shape=partialRectangle;html=1;whiteSpace=wrap;connectable=0;overflow=hidden;fillColor=#d5e8d4;top=0;left=0;bottom=0;right=0;perimeterSpacing=3;shadow=1;sketch=0;" parent="J4JmWMsf1rsz2gFimmaW-381" vertex="1">
          <mxGeometry x="40" width="40" height="40" as="geometry" />
        </mxCell>
        <mxCell id="J4JmWMsf1rsz2gFimmaW-384" value="" style="shape=partialRectangle;html=1;whiteSpace=wrap;connectable=0;overflow=hidden;top=0;left=0;bottom=0;right=0;perimeterSpacing=3;" parent="J4JmWMsf1rsz2gFimmaW-381" vertex="1">
          <mxGeometry x="80" width="40" height="40" as="geometry" />
        </mxCell>
        <mxCell id="J4JmWMsf1rsz2gFimmaW-385" value="" style="shape=partialRectangle;html=1;whiteSpace=wrap;connectable=0;overflow=hidden;top=0;left=0;bottom=0;right=0;perimeterSpacing=3;" parent="J4JmWMsf1rsz2gFimmaW-381" vertex="1">
          <mxGeometry x="120" width="40" height="40" as="geometry" />
        </mxCell>
        <mxCell id="J4JmWMsf1rsz2gFimmaW-386" value="" style="shape=partialRectangle;html=1;whiteSpace=wrap;connectable=0;overflow=hidden;top=0;left=0;bottom=0;right=0;perimeterSpacing=3;" parent="J4JmWMsf1rsz2gFimmaW-381" vertex="1">
          <mxGeometry x="160" width="40" height="40" as="geometry" />
        </mxCell>
        <mxCell id="J4JmWMsf1rsz2gFimmaW-387" value="" style="shape=partialRectangle;html=1;whiteSpace=wrap;connectable=0;overflow=hidden;top=0;left=0;bottom=0;right=0;perimeterSpacing=3;" parent="J4JmWMsf1rsz2gFimmaW-381" vertex="1">
          <mxGeometry x="200" width="40" height="40" as="geometry" />
        </mxCell>
        <mxCell id="J4JmWMsf1rsz2gFimmaW-388" value="" style="shape=partialRectangle;html=1;whiteSpace=wrap;collapsible=0;dropTarget=0;pointerEvents=0;fillColor=none;top=0;left=0;bottom=0;right=0;points=[[0,0.5],[1,0.5]];portConstraint=eastwest;perimeterSpacing=3;" parent="J4JmWMsf1rsz2gFimmaW-352" vertex="1">
          <mxGeometry y="200" width="240" height="40" as="geometry" />
        </mxCell>
        <mxCell id="J4JmWMsf1rsz2gFimmaW-389" value="" style="shape=partialRectangle;html=1;whiteSpace=wrap;connectable=0;overflow=hidden;fillColor=#d5e8d4;top=0;left=0;bottom=0;right=0;perimeterSpacing=3;shadow=0;sketch=0;" parent="J4JmWMsf1rsz2gFimmaW-388" vertex="1">
          <mxGeometry width="40" height="40" as="geometry" />
        </mxCell>
        <mxCell id="J4JmWMsf1rsz2gFimmaW-390" value="" style="shape=partialRectangle;html=1;whiteSpace=wrap;connectable=0;overflow=hidden;fillColor=#d5e8d4;top=0;left=0;bottom=0;right=0;perimeterSpacing=3;shadow=0;sketch=0;" parent="J4JmWMsf1rsz2gFimmaW-388" vertex="1">
          <mxGeometry x="40" width="40" height="40" as="geometry" />
        </mxCell>
        <mxCell id="J4JmWMsf1rsz2gFimmaW-391" value="" style="shape=partialRectangle;html=1;whiteSpace=wrap;connectable=0;overflow=hidden;top=0;left=0;bottom=0;right=0;perimeterSpacing=3;" parent="J4JmWMsf1rsz2gFimmaW-388" vertex="1">
          <mxGeometry x="80" width="40" height="40" as="geometry" />
        </mxCell>
        <mxCell id="J4JmWMsf1rsz2gFimmaW-392" value="" style="shape=partialRectangle;html=1;whiteSpace=wrap;connectable=0;overflow=hidden;top=0;left=0;bottom=0;right=0;perimeterSpacing=3;" parent="J4JmWMsf1rsz2gFimmaW-388" vertex="1">
          <mxGeometry x="120" width="40" height="40" as="geometry" />
        </mxCell>
        <mxCell id="J4JmWMsf1rsz2gFimmaW-393" value="" style="shape=partialRectangle;html=1;whiteSpace=wrap;connectable=0;overflow=hidden;top=0;left=0;bottom=0;right=0;perimeterSpacing=3;" parent="J4JmWMsf1rsz2gFimmaW-388" vertex="1">
          <mxGeometry x="160" width="40" height="40" as="geometry" />
        </mxCell>
        <mxCell id="J4JmWMsf1rsz2gFimmaW-394" value="" style="shape=partialRectangle;html=1;whiteSpace=wrap;connectable=0;overflow=hidden;top=0;left=0;bottom=0;right=0;perimeterSpacing=3;" parent="J4JmWMsf1rsz2gFimmaW-388" vertex="1">
          <mxGeometry x="200" width="40" height="40" as="geometry" />
        </mxCell>
        <mxCell id="J4JmWMsf1rsz2gFimmaW-45" value="" style="shape=table;html=1;whiteSpace=wrap;startSize=0;container=1;collapsible=0;childLayout=tableLayout;perimeterSpacing=3;" parent="1" vertex="1">
          <mxGeometry x="424" y="38" width="240" height="240" as="geometry" />
        </mxCell>
        <mxCell id="J4JmWMsf1rsz2gFimmaW-46" value="" style="shape=partialRectangle;html=1;whiteSpace=wrap;collapsible=0;dropTarget=0;pointerEvents=0;fillColor=none;top=0;left=0;bottom=0;right=0;points=[[0,0.5],[1,0.5]];portConstraint=eastwest;perimeterSpacing=3;" parent="J4JmWMsf1rsz2gFimmaW-45" vertex="1">
          <mxGeometry width="240" height="40" as="geometry" />
        </mxCell>
        <mxCell id="J4JmWMsf1rsz2gFimmaW-47" value="" style="shape=partialRectangle;html=1;whiteSpace=wrap;connectable=0;overflow=hidden;fillColor=#d5e8d4;top=0;left=0;bottom=0;right=0;perimeterSpacing=3;" parent="J4JmWMsf1rsz2gFimmaW-46" vertex="1">
          <mxGeometry width="40" height="40" as="geometry" />
        </mxCell>
        <mxCell id="J4JmWMsf1rsz2gFimmaW-48" value="" style="shape=partialRectangle;html=1;whiteSpace=wrap;connectable=0;overflow=hidden;top=0;left=0;bottom=0;right=0;perimeterSpacing=3;fillColor=#d5e8d4;strokeColor=#82b366;" parent="J4JmWMsf1rsz2gFimmaW-46" vertex="1">
          <mxGeometry x="40" width="40" height="40" as="geometry" />
        </mxCell>
        <mxCell id="J4JmWMsf1rsz2gFimmaW-49" value="" style="shape=partialRectangle;html=1;whiteSpace=wrap;connectable=0;overflow=hidden;fillColor=#d5e8d4;top=0;left=0;bottom=0;right=0;perimeterSpacing=3;strokeColor=#82b366;" parent="J4JmWMsf1rsz2gFimmaW-46" vertex="1">
          <mxGeometry x="80" width="40" height="40" as="geometry" />
        </mxCell>
        <mxCell id="J4JmWMsf1rsz2gFimmaW-50" value="" style="shape=partialRectangle;html=1;whiteSpace=wrap;connectable=0;overflow=hidden;fillColor=#d5e8d4;top=0;left=0;bottom=0;right=0;perimeterSpacing=3;strokeColor=#82b366;" parent="J4JmWMsf1rsz2gFimmaW-46" vertex="1">
          <mxGeometry x="120" width="40" height="40" as="geometry" />
        </mxCell>
        <mxCell id="J4JmWMsf1rsz2gFimmaW-51" value="" style="shape=partialRectangle;html=1;whiteSpace=wrap;connectable=0;overflow=hidden;fillColor=#d5e8d4;top=0;left=0;bottom=0;right=0;perimeterSpacing=3;strokeColor=#82b366;" parent="J4JmWMsf1rsz2gFimmaW-46" vertex="1">
          <mxGeometry x="160" width="40" height="40" as="geometry" />
        </mxCell>
        <mxCell id="J4JmWMsf1rsz2gFimmaW-52" value="" style="shape=partialRectangle;html=1;whiteSpace=wrap;connectable=0;overflow=hidden;fillColor=#d5e8d4;top=0;left=0;bottom=0;right=0;perimeterSpacing=3;strokeColor=#82b366;" parent="J4JmWMsf1rsz2gFimmaW-46" vertex="1">
          <mxGeometry x="200" width="40" height="40" as="geometry" />
        </mxCell>
        <mxCell id="J4JmWMsf1rsz2gFimmaW-53" value="" style="shape=partialRectangle;html=1;whiteSpace=wrap;collapsible=0;dropTarget=0;pointerEvents=0;fillColor=none;top=0;left=0;bottom=0;right=0;points=[[0,0.5],[1,0.5]];portConstraint=eastwest;perimeterSpacing=3;" parent="J4JmWMsf1rsz2gFimmaW-45" vertex="1">
          <mxGeometry y="40" width="240" height="40" as="geometry" />
        </mxCell>
        <mxCell id="J4JmWMsf1rsz2gFimmaW-54" value="" style="shape=partialRectangle;html=1;whiteSpace=wrap;connectable=0;overflow=hidden;fillColor=#d5e8d4;top=0;left=0;bottom=0;right=0;perimeterSpacing=3;" parent="J4JmWMsf1rsz2gFimmaW-53" vertex="1">
          <mxGeometry width="40" height="40" as="geometry" />
        </mxCell>
        <mxCell id="J4JmWMsf1rsz2gFimmaW-55" value="" style="shape=partialRectangle;html=1;whiteSpace=wrap;connectable=0;overflow=hidden;fillColor=#d5e8d4;top=0;left=0;bottom=0;right=0;perimeterSpacing=3;" parent="J4JmWMsf1rsz2gFimmaW-53" vertex="1">
          <mxGeometry x="40" width="40" height="40" as="geometry" />
        </mxCell>
        <mxCell id="J4JmWMsf1rsz2gFimmaW-56" value="" style="shape=partialRectangle;html=1;whiteSpace=wrap;connectable=0;overflow=hidden;top=0;left=0;bottom=0;right=0;perimeterSpacing=3;fillColor=#d5e8d4;strokeColor=#82b366;" parent="J4JmWMsf1rsz2gFimmaW-53" vertex="1">
          <mxGeometry x="80" width="40" height="40" as="geometry" />
        </mxCell>
        <mxCell id="J4JmWMsf1rsz2gFimmaW-57" value="" style="shape=partialRectangle;html=1;whiteSpace=wrap;connectable=0;overflow=hidden;fillColor=#d5e8d4;top=0;left=0;bottom=0;right=0;perimeterSpacing=3;strokeColor=#82b366;" parent="J4JmWMsf1rsz2gFimmaW-53" vertex="1">
          <mxGeometry x="120" width="40" height="40" as="geometry" />
        </mxCell>
        <mxCell id="J4JmWMsf1rsz2gFimmaW-58" value="" style="shape=partialRectangle;html=1;whiteSpace=wrap;connectable=0;overflow=hidden;fillColor=#d5e8d4;top=0;left=0;bottom=0;right=0;perimeterSpacing=3;strokeColor=#82b366;" parent="J4JmWMsf1rsz2gFimmaW-53" vertex="1">
          <mxGeometry x="160" width="40" height="40" as="geometry" />
        </mxCell>
        <mxCell id="J4JmWMsf1rsz2gFimmaW-59" value="" style="shape=partialRectangle;html=1;whiteSpace=wrap;connectable=0;overflow=hidden;top=0;left=0;bottom=0;right=0;perimeterSpacing=3;" parent="J4JmWMsf1rsz2gFimmaW-53" vertex="1">
          <mxGeometry x="200" width="40" height="40" as="geometry" />
        </mxCell>
        <mxCell id="J4JmWMsf1rsz2gFimmaW-60" value="" style="shape=partialRectangle;html=1;whiteSpace=wrap;collapsible=0;dropTarget=0;pointerEvents=0;fillColor=none;top=0;left=0;bottom=0;right=0;points=[[0,0.5],[1,0.5]];portConstraint=eastwest;perimeterSpacing=3;" parent="J4JmWMsf1rsz2gFimmaW-45" vertex="1">
          <mxGeometry y="80" width="240" height="40" as="geometry" />
        </mxCell>
        <mxCell id="J4JmWMsf1rsz2gFimmaW-61" value="" style="shape=partialRectangle;html=1;whiteSpace=wrap;connectable=0;overflow=hidden;fillColor=#d5e8d4;top=0;left=0;bottom=0;right=0;perimeterSpacing=3;" parent="J4JmWMsf1rsz2gFimmaW-60" vertex="1">
          <mxGeometry width="40" height="40" as="geometry" />
        </mxCell>
        <mxCell id="J4JmWMsf1rsz2gFimmaW-62" value="" style="shape=partialRectangle;html=1;whiteSpace=wrap;connectable=0;overflow=hidden;fillColor=#d5e8d4;top=0;left=0;bottom=0;right=0;perimeterSpacing=3;" parent="J4JmWMsf1rsz2gFimmaW-60" vertex="1">
          <mxGeometry x="40" width="40" height="40" as="geometry" />
        </mxCell>
        <mxCell id="J4JmWMsf1rsz2gFimmaW-63" value="" style="shape=partialRectangle;html=1;whiteSpace=wrap;connectable=0;overflow=hidden;fillColor=#d5e8d4;top=0;left=0;bottom=0;right=0;perimeterSpacing=3;" parent="J4JmWMsf1rsz2gFimmaW-60" vertex="1">
          <mxGeometry x="80" width="40" height="40" as="geometry" />
        </mxCell>
        <mxCell id="J4JmWMsf1rsz2gFimmaW-64" value="" style="shape=partialRectangle;html=1;whiteSpace=wrap;connectable=0;overflow=hidden;top=0;left=0;bottom=0;right=0;perimeterSpacing=3;fillColor=#d5e8d4;strokeColor=#82b366;" parent="J4JmWMsf1rsz2gFimmaW-60" vertex="1">
          <mxGeometry x="120" width="40" height="40" as="geometry" />
        </mxCell>
        <mxCell id="J4JmWMsf1rsz2gFimmaW-65" value="" style="shape=partialRectangle;html=1;whiteSpace=wrap;connectable=0;overflow=hidden;top=0;left=0;bottom=0;right=0;perimeterSpacing=3;" parent="J4JmWMsf1rsz2gFimmaW-60" vertex="1">
          <mxGeometry x="160" width="40" height="40" as="geometry" />
        </mxCell>
        <mxCell id="J4JmWMsf1rsz2gFimmaW-66" value="" style="shape=partialRectangle;html=1;whiteSpace=wrap;connectable=0;overflow=hidden;top=0;left=0;bottom=0;right=0;perimeterSpacing=3;" parent="J4JmWMsf1rsz2gFimmaW-60" vertex="1">
          <mxGeometry x="200" width="40" height="40" as="geometry" />
        </mxCell>
        <mxCell id="J4JmWMsf1rsz2gFimmaW-67" value="" style="shape=partialRectangle;html=1;whiteSpace=wrap;collapsible=0;dropTarget=0;pointerEvents=0;fillColor=none;top=0;left=0;bottom=0;right=0;points=[[0,0.5],[1,0.5]];portConstraint=eastwest;perimeterSpacing=3;" parent="J4JmWMsf1rsz2gFimmaW-45" vertex="1">
          <mxGeometry y="120" width="240" height="40" as="geometry" />
        </mxCell>
        <mxCell id="J4JmWMsf1rsz2gFimmaW-68" value="" style="shape=partialRectangle;html=1;whiteSpace=wrap;connectable=0;overflow=hidden;fillColor=#d5e8d4;top=0;left=0;bottom=0;right=0;perimeterSpacing=3;" parent="J4JmWMsf1rsz2gFimmaW-67" vertex="1">
          <mxGeometry width="40" height="40" as="geometry" />
        </mxCell>
        <mxCell id="J4JmWMsf1rsz2gFimmaW-69" value="" style="shape=partialRectangle;html=1;whiteSpace=wrap;connectable=0;overflow=hidden;fillColor=#d5e8d4;top=0;left=0;bottom=0;right=0;perimeterSpacing=3;" parent="J4JmWMsf1rsz2gFimmaW-67" vertex="1">
          <mxGeometry x="40" width="40" height="40" as="geometry" />
        </mxCell>
        <mxCell id="J4JmWMsf1rsz2gFimmaW-70" value="" style="shape=partialRectangle;html=1;whiteSpace=wrap;connectable=0;overflow=hidden;fillColor=#d5e8d4;top=0;left=0;bottom=0;right=0;perimeterSpacing=3;" parent="J4JmWMsf1rsz2gFimmaW-67" vertex="1">
          <mxGeometry x="80" width="40" height="40" as="geometry" />
        </mxCell>
        <mxCell id="J4JmWMsf1rsz2gFimmaW-71" value="" style="shape=partialRectangle;html=1;whiteSpace=wrap;connectable=0;overflow=hidden;top=0;left=0;bottom=0;right=0;perimeterSpacing=3;" parent="J4JmWMsf1rsz2gFimmaW-67" vertex="1">
          <mxGeometry x="120" width="40" height="40" as="geometry" />
        </mxCell>
        <mxCell id="J4JmWMsf1rsz2gFimmaW-72" value="" style="shape=partialRectangle;html=1;whiteSpace=wrap;connectable=0;overflow=hidden;top=0;left=0;bottom=0;right=0;perimeterSpacing=3;" parent="J4JmWMsf1rsz2gFimmaW-67" vertex="1">
          <mxGeometry x="160" width="40" height="40" as="geometry" />
        </mxCell>
        <mxCell id="J4JmWMsf1rsz2gFimmaW-73" value="" style="shape=partialRectangle;html=1;whiteSpace=wrap;connectable=0;overflow=hidden;top=0;left=0;bottom=0;right=0;perimeterSpacing=3;" parent="J4JmWMsf1rsz2gFimmaW-67" vertex="1">
          <mxGeometry x="200" width="40" height="40" as="geometry" />
        </mxCell>
        <mxCell id="J4JmWMsf1rsz2gFimmaW-74" value="" style="shape=partialRectangle;html=1;whiteSpace=wrap;collapsible=0;dropTarget=0;pointerEvents=0;fillColor=none;top=0;left=0;bottom=0;right=0;points=[[0,0.5],[1,0.5]];portConstraint=eastwest;perimeterSpacing=3;" parent="J4JmWMsf1rsz2gFimmaW-45" vertex="1">
          <mxGeometry y="160" width="240" height="40" as="geometry" />
        </mxCell>
        <mxCell id="J4JmWMsf1rsz2gFimmaW-75" value="" style="shape=partialRectangle;html=1;whiteSpace=wrap;connectable=0;overflow=hidden;fillColor=#d5e8d4;top=0;left=0;bottom=0;right=0;perimeterSpacing=3;" parent="J4JmWMsf1rsz2gFimmaW-74" vertex="1">
          <mxGeometry width="40" height="40" as="geometry" />
        </mxCell>
        <mxCell id="J4JmWMsf1rsz2gFimmaW-76" value="" style="shape=partialRectangle;html=1;whiteSpace=wrap;connectable=0;overflow=hidden;fillColor=#d5e8d4;top=0;left=0;bottom=0;right=0;perimeterSpacing=3;" parent="J4JmWMsf1rsz2gFimmaW-74" vertex="1">
          <mxGeometry x="40" width="40" height="40" as="geometry" />
        </mxCell>
        <mxCell id="J4JmWMsf1rsz2gFimmaW-77" value="" style="shape=partialRectangle;html=1;whiteSpace=wrap;connectable=0;overflow=hidden;top=0;left=0;bottom=0;right=0;perimeterSpacing=3;" parent="J4JmWMsf1rsz2gFimmaW-74" vertex="1">
          <mxGeometry x="80" width="40" height="40" as="geometry" />
        </mxCell>
        <mxCell id="J4JmWMsf1rsz2gFimmaW-78" value="" style="shape=partialRectangle;html=1;whiteSpace=wrap;connectable=0;overflow=hidden;top=0;left=0;bottom=0;right=0;perimeterSpacing=3;" parent="J4JmWMsf1rsz2gFimmaW-74" vertex="1">
          <mxGeometry x="120" width="40" height="40" as="geometry" />
        </mxCell>
        <mxCell id="J4JmWMsf1rsz2gFimmaW-79" value="" style="shape=partialRectangle;html=1;whiteSpace=wrap;connectable=0;overflow=hidden;top=0;left=0;bottom=0;right=0;perimeterSpacing=3;" parent="J4JmWMsf1rsz2gFimmaW-74" vertex="1">
          <mxGeometry x="160" width="40" height="40" as="geometry" />
        </mxCell>
        <mxCell id="J4JmWMsf1rsz2gFimmaW-80" value="" style="shape=partialRectangle;html=1;whiteSpace=wrap;connectable=0;overflow=hidden;top=0;left=0;bottom=0;right=0;perimeterSpacing=3;" parent="J4JmWMsf1rsz2gFimmaW-74" vertex="1">
          <mxGeometry x="200" width="40" height="40" as="geometry" />
        </mxCell>
        <mxCell id="J4JmWMsf1rsz2gFimmaW-81" value="" style="shape=partialRectangle;html=1;whiteSpace=wrap;collapsible=0;dropTarget=0;pointerEvents=0;fillColor=none;top=0;left=0;bottom=0;right=0;points=[[0,0.5],[1,0.5]];portConstraint=eastwest;perimeterSpacing=3;" parent="J4JmWMsf1rsz2gFimmaW-45" vertex="1">
          <mxGeometry y="200" width="240" height="40" as="geometry" />
        </mxCell>
        <mxCell id="J4JmWMsf1rsz2gFimmaW-82" value="" style="shape=partialRectangle;html=1;whiteSpace=wrap;connectable=0;overflow=hidden;fillColor=#d5e8d4;top=0;left=0;bottom=0;right=0;perimeterSpacing=3;" parent="J4JmWMsf1rsz2gFimmaW-81" vertex="1">
          <mxGeometry width="40" height="40" as="geometry" />
        </mxCell>
        <mxCell id="J4JmWMsf1rsz2gFimmaW-83" value="" style="shape=partialRectangle;html=1;whiteSpace=wrap;connectable=0;overflow=hidden;top=0;left=0;bottom=0;right=0;perimeterSpacing=3;" parent="J4JmWMsf1rsz2gFimmaW-81" vertex="1">
          <mxGeometry x="40" width="40" height="40" as="geometry" />
        </mxCell>
        <mxCell id="J4JmWMsf1rsz2gFimmaW-84" value="" style="shape=partialRectangle;html=1;whiteSpace=wrap;connectable=0;overflow=hidden;top=0;left=0;bottom=0;right=0;perimeterSpacing=3;" parent="J4JmWMsf1rsz2gFimmaW-81" vertex="1">
          <mxGeometry x="80" width="40" height="40" as="geometry" />
        </mxCell>
        <mxCell id="J4JmWMsf1rsz2gFimmaW-85" value="" style="shape=partialRectangle;html=1;whiteSpace=wrap;connectable=0;overflow=hidden;top=0;left=0;bottom=0;right=0;perimeterSpacing=3;" parent="J4JmWMsf1rsz2gFimmaW-81" vertex="1">
          <mxGeometry x="120" width="40" height="40" as="geometry" />
        </mxCell>
        <mxCell id="J4JmWMsf1rsz2gFimmaW-86" value="" style="shape=partialRectangle;html=1;whiteSpace=wrap;connectable=0;overflow=hidden;top=0;left=0;bottom=0;right=0;perimeterSpacing=3;" parent="J4JmWMsf1rsz2gFimmaW-81" vertex="1">
          <mxGeometry x="160" width="40" height="40" as="geometry" />
        </mxCell>
        <mxCell id="J4JmWMsf1rsz2gFimmaW-87" value="" style="shape=partialRectangle;html=1;whiteSpace=wrap;connectable=0;overflow=hidden;top=0;left=0;bottom=0;right=0;perimeterSpacing=3;" parent="J4JmWMsf1rsz2gFimmaW-81" vertex="1">
          <mxGeometry x="200" width="40" height="40" as="geometry" />
        </mxCell>
        <mxCell id="tj5xMzKYbUEe_npLuVnh-6" value="" style="endArrow=classic;html=1;" edge="1" parent="1">
          <mxGeometry width="50" height="50" relative="1" as="geometry">
            <mxPoint x="404" y="280" as="sourcePoint" />
            <mxPoint x="404" y="38" as="targetPoint" />
          </mxGeometry>
        </mxCell>
        <mxCell id="tj5xMzKYbUEe_npLuVnh-7" value="&lt;span style=&quot;font-size: 14px&quot;&gt;Output&lt;/span&gt;" style="edgeLabel;html=1;align=center;verticalAlign=middle;resizable=0;points=[];horizontal=0;" vertex="1" connectable="0" parent="tj5xMzKYbUEe_npLuVnh-6">
          <mxGeometry x="-0.0462" y="2" relative="1" as="geometry">
            <mxPoint as="offset" />
          </mxGeometry>
        </mxCell>
        <mxCell id="tj5xMzKYbUEe_npLuVnh-8" value="(b)" style="text;html=1;fillColor=none;align=center;verticalAlign=middle;whiteSpace=wrap;rounded=0;fontSize=16;perimeterSpacing=3;strokeColor=#FFFFFF;" vertex="1" parent="1">
          <mxGeometry x="427" y="314" width="236" height="20" as="geometry" />
        </mxCell>
        <mxCell id="tj5xMzKYbUEe_npLuVnh-9" value="" style="endArrow=classic;html=1;entryX=1;entryY=0;entryDx=0;entryDy=0;" edge="1" parent="1">
          <mxGeometry width="50" height="50" relative="1" as="geometry">
            <mxPoint x="424" y="295" as="sourcePoint" />
            <mxPoint x="663" y="297" as="targetPoint" />
          </mxGeometry>
        </mxCell>
        <mxCell id="tj5xMzKYbUEe_npLuVnh-10" value="&lt;font style=&quot;font-size: 14px&quot;&gt;Input&lt;/font&gt;" style="edgeLabel;html=1;align=center;verticalAlign=middle;resizable=0;points=[];" vertex="1" connectable="0" parent="tj5xMzKYbUEe_npLuVnh-9">
          <mxGeometry x="-0.0462" y="2" relative="1" as="geometry">
            <mxPoint as="offset" />
          </mxGeometry>
        </mxCell>
        <mxCell id="tj5xMzKYbUEe_npLuVnh-11" value="(c)" style="text;html=1;fillColor=none;align=center;verticalAlign=middle;whiteSpace=wrap;rounded=0;fontSize=16;perimeterSpacing=3;strokeColor=#FFFFFF;" vertex="1" parent="1">
          <mxGeometry x="722" y="314" width="236" height="20" as="geometry" />
        </mxCell>
        <mxCell id="tj5xMzKYbUEe_npLuVnh-12" value="" style="endArrow=classic;html=1;entryX=1;entryY=0;entryDx=0;entryDy=0;" edge="1" parent="1">
          <mxGeometry width="50" height="50" relative="1" as="geometry">
            <mxPoint x="719" y="295" as="sourcePoint" />
            <mxPoint x="958" y="297" as="targetPoint" />
          </mxGeometry>
        </mxCell>
        <mxCell id="tj5xMzKYbUEe_npLuVnh-13" value="&lt;font style=&quot;font-size: 14px&quot;&gt;Input&lt;/font&gt;" style="edgeLabel;html=1;align=center;verticalAlign=middle;resizable=0;points=[];" vertex="1" connectable="0" parent="tj5xMzKYbUEe_npLuVnh-12">
          <mxGeometry x="-0.0462" y="2" relative="1" as="geometry">
            <mxPoint as="offset" />
          </mxGeometry>
        </mxCell>
        <mxCell id="tj5xMzKYbUEe_npLuVnh-14" value="" style="endArrow=classic;html=1;" edge="1" parent="1">
          <mxGeometry width="50" height="50" relative="1" as="geometry">
            <mxPoint x="701" y="280" as="sourcePoint" />
            <mxPoint x="701" y="38" as="targetPoint" />
          </mxGeometry>
        </mxCell>
        <mxCell id="tj5xMzKYbUEe_npLuVnh-15" value="&lt;span style=&quot;font-size: 14px&quot;&gt;Output&lt;/span&gt;" style="edgeLabel;html=1;align=center;verticalAlign=middle;resizable=0;points=[];horizontal=0;" vertex="1" connectable="0" parent="tj5xMzKYbUEe_npLuVnh-14">
          <mxGeometry x="-0.0462" y="2" relative="1" as="geometry">
            <mxPoint as="offset" />
          </mxGeometry>
        </mxCell>
        <mxCell id="tj5xMzKYbUEe_npLuVnh-18" value="" style="shape=table;html=1;whiteSpace=wrap;startSize=0;container=1;collapsible=0;childLayout=tableLayout;perimeterSpacing=3;" vertex="1" parent="1">
          <mxGeometry x="131" y="38" width="240" height="240" as="geometry" />
        </mxCell>
        <mxCell id="tj5xMzKYbUEe_npLuVnh-19" value="" style="shape=partialRectangle;html=1;whiteSpace=wrap;collapsible=0;dropTarget=0;pointerEvents=0;fillColor=none;top=0;left=0;bottom=0;right=0;points=[[0,0.5],[1,0.5]];portConstraint=eastwest;perimeterSpacing=3;" vertex="1" parent="tj5xMzKYbUEe_npLuVnh-18">
          <mxGeometry width="240" height="40" as="geometry" />
        </mxCell>
        <mxCell id="tj5xMzKYbUEe_npLuVnh-20" value="" style="shape=partialRectangle;html=1;whiteSpace=wrap;connectable=0;overflow=hidden;fillColor=#d5e8d4;top=0;left=0;bottom=0;right=0;perimeterSpacing=3;" vertex="1" parent="tj5xMzKYbUEe_npLuVnh-19">
          <mxGeometry width="40" height="40" as="geometry" />
        </mxCell>
        <mxCell id="tj5xMzKYbUEe_npLuVnh-21" value="" style="shape=partialRectangle;html=1;whiteSpace=wrap;connectable=0;overflow=hidden;top=0;left=0;bottom=0;right=0;perimeterSpacing=3;fillColor=#d5e8d4;strokeColor=#82b366;" vertex="1" parent="tj5xMzKYbUEe_npLuVnh-19">
          <mxGeometry x="40" width="40" height="40" as="geometry" />
        </mxCell>
        <mxCell id="tj5xMzKYbUEe_npLuVnh-22" value="" style="shape=partialRectangle;html=1;whiteSpace=wrap;connectable=0;overflow=hidden;fillColor=#d5e8d4;top=0;left=0;bottom=0;right=0;perimeterSpacing=3;strokeColor=#82b366;" vertex="1" parent="tj5xMzKYbUEe_npLuVnh-19">
          <mxGeometry x="80" width="40" height="40" as="geometry" />
        </mxCell>
        <mxCell id="tj5xMzKYbUEe_npLuVnh-23" value="" style="shape=partialRectangle;html=1;whiteSpace=wrap;connectable=0;overflow=hidden;fillColor=#d5e8d4;top=0;left=0;bottom=0;right=0;perimeterSpacing=3;strokeColor=#82b366;" vertex="1" parent="tj5xMzKYbUEe_npLuVnh-19">
          <mxGeometry x="120" width="40" height="40" as="geometry" />
        </mxCell>
        <mxCell id="tj5xMzKYbUEe_npLuVnh-24" value="" style="shape=partialRectangle;html=1;whiteSpace=wrap;connectable=0;overflow=hidden;fillColor=#d5e8d4;top=0;left=0;bottom=0;right=0;perimeterSpacing=3;strokeColor=#82b366;" vertex="1" parent="tj5xMzKYbUEe_npLuVnh-19">
          <mxGeometry x="160" width="40" height="40" as="geometry" />
        </mxCell>
        <mxCell id="tj5xMzKYbUEe_npLuVnh-25" value="" style="shape=partialRectangle;html=1;whiteSpace=wrap;connectable=0;overflow=hidden;fillColor=#d5e8d4;top=0;left=0;bottom=0;right=0;perimeterSpacing=3;strokeColor=#82b366;" vertex="1" parent="tj5xMzKYbUEe_npLuVnh-19">
          <mxGeometry x="200" width="40" height="40" as="geometry" />
        </mxCell>
        <mxCell id="tj5xMzKYbUEe_npLuVnh-26" value="" style="shape=partialRectangle;html=1;whiteSpace=wrap;collapsible=0;dropTarget=0;pointerEvents=0;fillColor=none;top=0;left=0;bottom=0;right=0;points=[[0,0.5],[1,0.5]];portConstraint=eastwest;perimeterSpacing=3;" vertex="1" parent="tj5xMzKYbUEe_npLuVnh-18">
          <mxGeometry y="40" width="240" height="40" as="geometry" />
        </mxCell>
        <mxCell id="tj5xMzKYbUEe_npLuVnh-27" value="" style="shape=partialRectangle;html=1;whiteSpace=wrap;connectable=0;overflow=hidden;fillColor=#d5e8d4;top=0;left=0;bottom=0;right=0;perimeterSpacing=3;" vertex="1" parent="tj5xMzKYbUEe_npLuVnh-26">
          <mxGeometry width="40" height="40" as="geometry" />
        </mxCell>
        <mxCell id="tj5xMzKYbUEe_npLuVnh-28" value="" style="shape=partialRectangle;html=1;whiteSpace=wrap;connectable=0;overflow=hidden;fillColor=#d5e8d4;top=0;left=0;bottom=0;right=0;perimeterSpacing=3;" vertex="1" parent="tj5xMzKYbUEe_npLuVnh-26">
          <mxGeometry x="40" width="40" height="40" as="geometry" />
        </mxCell>
        <mxCell id="tj5xMzKYbUEe_npLuVnh-29" value="" style="shape=partialRectangle;html=1;whiteSpace=wrap;connectable=0;overflow=hidden;top=0;left=0;bottom=0;right=0;perimeterSpacing=3;fillColor=#d5e8d4;strokeColor=#82b366;" vertex="1" parent="tj5xMzKYbUEe_npLuVnh-26">
          <mxGeometry x="80" width="40" height="40" as="geometry" />
        </mxCell>
        <mxCell id="tj5xMzKYbUEe_npLuVnh-30" value="" style="shape=partialRectangle;html=1;whiteSpace=wrap;connectable=0;overflow=hidden;fillColor=#d5e8d4;top=0;left=0;bottom=0;right=0;perimeterSpacing=3;strokeColor=#82b366;" vertex="1" parent="tj5xMzKYbUEe_npLuVnh-26">
          <mxGeometry x="120" width="40" height="40" as="geometry" />
        </mxCell>
        <mxCell id="tj5xMzKYbUEe_npLuVnh-31" value="" style="shape=partialRectangle;html=1;whiteSpace=wrap;connectable=0;overflow=hidden;fillColor=#d5e8d4;top=0;left=0;bottom=0;right=0;perimeterSpacing=3;strokeColor=#82b366;" vertex="1" parent="tj5xMzKYbUEe_npLuVnh-26">
          <mxGeometry x="160" width="40" height="40" as="geometry" />
        </mxCell>
        <mxCell id="tj5xMzKYbUEe_npLuVnh-32" value="" style="shape=partialRectangle;html=1;whiteSpace=wrap;connectable=0;overflow=hidden;top=0;left=0;bottom=0;right=0;perimeterSpacing=3;" vertex="1" parent="tj5xMzKYbUEe_npLuVnh-26">
          <mxGeometry x="200" width="40" height="40" as="geometry" />
        </mxCell>
        <mxCell id="tj5xMzKYbUEe_npLuVnh-33" value="" style="shape=partialRectangle;html=1;whiteSpace=wrap;collapsible=0;dropTarget=0;pointerEvents=0;fillColor=none;top=0;left=0;bottom=0;right=0;points=[[0,0.5],[1,0.5]];portConstraint=eastwest;perimeterSpacing=3;" vertex="1" parent="tj5xMzKYbUEe_npLuVnh-18">
          <mxGeometry y="80" width="240" height="40" as="geometry" />
        </mxCell>
        <mxCell id="tj5xMzKYbUEe_npLuVnh-34" value="" style="shape=partialRectangle;html=1;whiteSpace=wrap;connectable=0;overflow=hidden;fillColor=#d5e8d4;top=0;left=0;bottom=0;right=0;perimeterSpacing=3;" vertex="1" parent="tj5xMzKYbUEe_npLuVnh-33">
          <mxGeometry width="40" height="40" as="geometry" />
        </mxCell>
        <mxCell id="tj5xMzKYbUEe_npLuVnh-35" value="" style="shape=partialRectangle;html=1;whiteSpace=wrap;connectable=0;overflow=hidden;fillColor=#d5e8d4;top=0;left=0;bottom=0;right=0;perimeterSpacing=3;" vertex="1" parent="tj5xMzKYbUEe_npLuVnh-33">
          <mxGeometry x="40" width="40" height="40" as="geometry" />
        </mxCell>
        <mxCell id="tj5xMzKYbUEe_npLuVnh-36" value="" style="shape=partialRectangle;html=1;whiteSpace=wrap;connectable=0;overflow=hidden;fillColor=#d5e8d4;top=0;left=0;bottom=0;right=0;perimeterSpacing=3;" vertex="1" parent="tj5xMzKYbUEe_npLuVnh-33">
          <mxGeometry x="80" width="40" height="40" as="geometry" />
        </mxCell>
        <mxCell id="tj5xMzKYbUEe_npLuVnh-37" value="" style="shape=partialRectangle;html=1;whiteSpace=wrap;connectable=0;overflow=hidden;top=0;left=0;bottom=0;right=0;perimeterSpacing=3;fillColor=#d5e8d4;strokeColor=#82b366;" vertex="1" parent="tj5xMzKYbUEe_npLuVnh-33">
          <mxGeometry x="120" width="40" height="40" as="geometry" />
        </mxCell>
        <mxCell id="tj5xMzKYbUEe_npLuVnh-38" value="" style="shape=partialRectangle;html=1;whiteSpace=wrap;connectable=0;overflow=hidden;top=0;left=0;bottom=0;right=0;perimeterSpacing=3;" vertex="1" parent="tj5xMzKYbUEe_npLuVnh-33">
          <mxGeometry x="160" width="40" height="40" as="geometry" />
        </mxCell>
        <mxCell id="tj5xMzKYbUEe_npLuVnh-39" value="" style="shape=partialRectangle;html=1;whiteSpace=wrap;connectable=0;overflow=hidden;top=0;left=0;bottom=0;right=0;perimeterSpacing=3;" vertex="1" parent="tj5xMzKYbUEe_npLuVnh-33">
          <mxGeometry x="200" width="40" height="40" as="geometry" />
        </mxCell>
        <mxCell id="tj5xMzKYbUEe_npLuVnh-40" value="" style="shape=partialRectangle;html=1;whiteSpace=wrap;collapsible=0;dropTarget=0;pointerEvents=0;fillColor=none;top=0;left=0;bottom=0;right=0;points=[[0,0.5],[1,0.5]];portConstraint=eastwest;perimeterSpacing=3;" vertex="1" parent="tj5xMzKYbUEe_npLuVnh-18">
          <mxGeometry y="120" width="240" height="40" as="geometry" />
        </mxCell>
        <mxCell id="tj5xMzKYbUEe_npLuVnh-41" value="" style="shape=partialRectangle;html=1;whiteSpace=wrap;connectable=0;overflow=hidden;fillColor=#d5e8d4;top=0;left=0;bottom=0;right=0;perimeterSpacing=3;" vertex="1" parent="tj5xMzKYbUEe_npLuVnh-40">
          <mxGeometry width="40" height="40" as="geometry" />
        </mxCell>
        <mxCell id="tj5xMzKYbUEe_npLuVnh-42" value="" style="shape=partialRectangle;html=1;whiteSpace=wrap;connectable=0;overflow=hidden;fillColor=#d5e8d4;top=0;left=0;bottom=0;right=0;perimeterSpacing=3;" vertex="1" parent="tj5xMzKYbUEe_npLuVnh-40">
          <mxGeometry x="40" width="40" height="40" as="geometry" />
        </mxCell>
        <mxCell id="tj5xMzKYbUEe_npLuVnh-43" value="" style="shape=partialRectangle;html=1;whiteSpace=wrap;connectable=0;overflow=hidden;fillColor=#d5e8d4;top=0;left=0;bottom=0;right=0;perimeterSpacing=3;" vertex="1" parent="tj5xMzKYbUEe_npLuVnh-40">
          <mxGeometry x="80" width="40" height="40" as="geometry" />
        </mxCell>
        <mxCell id="tj5xMzKYbUEe_npLuVnh-44" value="" style="shape=partialRectangle;html=1;whiteSpace=wrap;connectable=0;overflow=hidden;top=0;left=0;bottom=0;right=0;perimeterSpacing=3;" vertex="1" parent="tj5xMzKYbUEe_npLuVnh-40">
          <mxGeometry x="120" width="40" height="40" as="geometry" />
        </mxCell>
        <mxCell id="tj5xMzKYbUEe_npLuVnh-45" value="" style="shape=partialRectangle;html=1;whiteSpace=wrap;connectable=0;overflow=hidden;top=0;left=0;bottom=0;right=0;perimeterSpacing=3;" vertex="1" parent="tj5xMzKYbUEe_npLuVnh-40">
          <mxGeometry x="160" width="40" height="40" as="geometry" />
        </mxCell>
        <mxCell id="tj5xMzKYbUEe_npLuVnh-46" value="" style="shape=partialRectangle;html=1;whiteSpace=wrap;connectable=0;overflow=hidden;top=0;left=0;bottom=0;right=0;perimeterSpacing=3;" vertex="1" parent="tj5xMzKYbUEe_npLuVnh-40">
          <mxGeometry x="200" width="40" height="40" as="geometry" />
        </mxCell>
        <mxCell id="tj5xMzKYbUEe_npLuVnh-47" value="" style="shape=partialRectangle;html=1;whiteSpace=wrap;collapsible=0;dropTarget=0;pointerEvents=0;fillColor=none;top=0;left=0;bottom=0;right=0;points=[[0,0.5],[1,0.5]];portConstraint=eastwest;perimeterSpacing=3;" vertex="1" parent="tj5xMzKYbUEe_npLuVnh-18">
          <mxGeometry y="160" width="240" height="40" as="geometry" />
        </mxCell>
        <mxCell id="tj5xMzKYbUEe_npLuVnh-48" value="" style="shape=partialRectangle;html=1;whiteSpace=wrap;connectable=0;overflow=hidden;fillColor=#d5e8d4;top=0;left=0;bottom=0;right=0;perimeterSpacing=3;" vertex="1" parent="tj5xMzKYbUEe_npLuVnh-47">
          <mxGeometry width="40" height="40" as="geometry" />
        </mxCell>
        <mxCell id="tj5xMzKYbUEe_npLuVnh-49" value="" style="shape=partialRectangle;html=1;whiteSpace=wrap;connectable=0;overflow=hidden;fillColor=#d5e8d4;top=0;left=0;bottom=0;right=0;perimeterSpacing=3;" vertex="1" parent="tj5xMzKYbUEe_npLuVnh-47">
          <mxGeometry x="40" width="40" height="40" as="geometry" />
        </mxCell>
        <mxCell id="tj5xMzKYbUEe_npLuVnh-50" value="" style="shape=partialRectangle;html=1;whiteSpace=wrap;connectable=0;overflow=hidden;top=0;left=0;bottom=0;right=0;perimeterSpacing=3;" vertex="1" parent="tj5xMzKYbUEe_npLuVnh-47">
          <mxGeometry x="80" width="40" height="40" as="geometry" />
        </mxCell>
        <mxCell id="tj5xMzKYbUEe_npLuVnh-51" value="" style="shape=partialRectangle;html=1;whiteSpace=wrap;connectable=0;overflow=hidden;top=0;left=0;bottom=0;right=0;perimeterSpacing=3;" vertex="1" parent="tj5xMzKYbUEe_npLuVnh-47">
          <mxGeometry x="120" width="40" height="40" as="geometry" />
        </mxCell>
        <mxCell id="tj5xMzKYbUEe_npLuVnh-52" value="" style="shape=partialRectangle;html=1;whiteSpace=wrap;connectable=0;overflow=hidden;top=0;left=0;bottom=0;right=0;perimeterSpacing=3;" vertex="1" parent="tj5xMzKYbUEe_npLuVnh-47">
          <mxGeometry x="160" width="40" height="40" as="geometry" />
        </mxCell>
        <mxCell id="tj5xMzKYbUEe_npLuVnh-53" value="" style="shape=partialRectangle;html=1;whiteSpace=wrap;connectable=0;overflow=hidden;top=0;left=0;bottom=0;right=0;perimeterSpacing=3;" vertex="1" parent="tj5xMzKYbUEe_npLuVnh-47">
          <mxGeometry x="200" width="40" height="40" as="geometry" />
        </mxCell>
        <mxCell id="tj5xMzKYbUEe_npLuVnh-54" value="" style="shape=partialRectangle;html=1;whiteSpace=wrap;collapsible=0;dropTarget=0;pointerEvents=0;fillColor=none;top=0;left=0;bottom=0;right=0;points=[[0,0.5],[1,0.5]];portConstraint=eastwest;perimeterSpacing=3;" vertex="1" parent="tj5xMzKYbUEe_npLuVnh-18">
          <mxGeometry y="200" width="240" height="40" as="geometry" />
        </mxCell>
        <mxCell id="tj5xMzKYbUEe_npLuVnh-55" value="" style="shape=partialRectangle;html=1;whiteSpace=wrap;connectable=0;overflow=hidden;fillColor=#d5e8d4;top=0;left=0;bottom=0;right=0;perimeterSpacing=3;" vertex="1" parent="tj5xMzKYbUEe_npLuVnh-54">
          <mxGeometry width="40" height="40" as="geometry" />
        </mxCell>
        <mxCell id="tj5xMzKYbUEe_npLuVnh-56" value="" style="shape=partialRectangle;html=1;whiteSpace=wrap;connectable=0;overflow=hidden;top=0;left=0;bottom=0;right=0;perimeterSpacing=3;" vertex="1" parent="tj5xMzKYbUEe_npLuVnh-54">
          <mxGeometry x="40" width="40" height="40" as="geometry" />
        </mxCell>
        <mxCell id="tj5xMzKYbUEe_npLuVnh-57" value="" style="shape=partialRectangle;html=1;whiteSpace=wrap;connectable=0;overflow=hidden;top=0;left=0;bottom=0;right=0;perimeterSpacing=3;" vertex="1" parent="tj5xMzKYbUEe_npLuVnh-54">
          <mxGeometry x="80" width="40" height="40" as="geometry" />
        </mxCell>
        <mxCell id="tj5xMzKYbUEe_npLuVnh-58" value="" style="shape=partialRectangle;html=1;whiteSpace=wrap;connectable=0;overflow=hidden;top=0;left=0;bottom=0;right=0;perimeterSpacing=3;" vertex="1" parent="tj5xMzKYbUEe_npLuVnh-54">
          <mxGeometry x="120" width="40" height="40" as="geometry" />
        </mxCell>
        <mxCell id="tj5xMzKYbUEe_npLuVnh-59" value="" style="shape=partialRectangle;html=1;whiteSpace=wrap;connectable=0;overflow=hidden;top=0;left=0;bottom=0;right=0;perimeterSpacing=3;" vertex="1" parent="tj5xMzKYbUEe_npLuVnh-54">
          <mxGeometry x="160" width="40" height="40" as="geometry" />
        </mxCell>
        <mxCell id="tj5xMzKYbUEe_npLuVnh-60" value="" style="shape=partialRectangle;html=1;whiteSpace=wrap;connectable=0;overflow=hidden;top=0;left=0;bottom=0;right=0;perimeterSpacing=3;" vertex="1" parent="tj5xMzKYbUEe_npLuVnh-54">
          <mxGeometry x="200" width="40" height="40" as="geometry" />
        </mxCell>
        <mxCell id="tj5xMzKYbUEe_npLuVnh-61" value="" style="endArrow=classic;html=1;" edge="1" parent="1">
          <mxGeometry width="50" height="50" relative="1" as="geometry">
            <mxPoint x="113" y="280" as="sourcePoint" />
            <mxPoint x="113" y="38" as="targetPoint" />
          </mxGeometry>
        </mxCell>
        <mxCell id="tj5xMzKYbUEe_npLuVnh-62" value="&lt;span style=&quot;font-size: 14px&quot;&gt;Output&lt;/span&gt;" style="edgeLabel;html=1;align=center;verticalAlign=middle;resizable=0;points=[];horizontal=0;" vertex="1" connectable="0" parent="tj5xMzKYbUEe_npLuVnh-61">
          <mxGeometry x="-0.0462" y="2" relative="1" as="geometry">
            <mxPoint as="offset" />
          </mxGeometry>
        </mxCell>
        <mxCell id="tj5xMzKYbUEe_npLuVnh-63" value="(a)" style="text;html=1;fillColor=none;align=center;verticalAlign=middle;whiteSpace=wrap;rounded=0;fontSize=16;perimeterSpacing=3;strokeColor=#FFFFFF;" vertex="1" parent="1">
          <mxGeometry x="135" y="314" width="236" height="20" as="geometry" />
        </mxCell>
        <mxCell id="tj5xMzKYbUEe_npLuVnh-64" value="" style="endArrow=classic;html=1;entryX=1;entryY=0;entryDx=0;entryDy=0;" edge="1" parent="1">
          <mxGeometry width="50" height="50" relative="1" as="geometry">
            <mxPoint x="132" y="295" as="sourcePoint" />
            <mxPoint x="371" y="297" as="targetPoint" />
          </mxGeometry>
        </mxCell>
        <mxCell id="tj5xMzKYbUEe_npLuVnh-65" value="&lt;font style=&quot;font-size: 14px&quot;&gt;Input&lt;/font&gt;" style="edgeLabel;html=1;align=center;verticalAlign=middle;resizable=0;points=[];" vertex="1" connectable="0" parent="tj5xMzKYbUEe_npLuVnh-64">
          <mxGeometry x="-0.0462" y="2" relative="1" as="geometry">
            <mxPoint as="offset" />
          </mxGeometry>
        </mxCell>
      </root>
    </mxGraphModel>
  </diagram>
</mxfile>
